<svg t="1602732783436" class="icon" viewBox="0 0 1024 1024" version="1.1" xmlns="http://www.w3.org/2000/svg" p-id="2816"
     width="256" height="256">
    <path d="M511.7 50.98C257.8 50.98 51.28 257.6 51.28 511.4c0 253.901 206.52 460.42 460.42 460.42S972.12 765.301 972.12 511.4c0-253.8-206.52-460.42-460.42-460.42z m0 854.866c-217.515 0-394.346-176.93-394.346-394.346 0-217.515 176.931-394.346 394.346-394.346S906.046 294.085 906.046 511.5 729.116 905.846 511.7 905.846z m0 0"
          fill="#b2b2b2" p-id="2817"></path>
    <path d="M511.7 246.304c-79.669 0-144.543 64.275-144.543 143.344 0 18.193 14.794 33.087 32.987 33.087s33.087-14.794 33.087-33.087c0-43.283 34.486-77.27 78.47-77.27 43.282 0 78.468 35.486 78.468 79.17 0 16.493-23.59 40.083-44.382 60.875-31.488 31.388-67.174 67.074-67.174 114.855v47.182c0 18.293 14.794 33.087 33.087 33.087 18.193 0 33.087-14.794 33.087-33.087v-47.282c0-20.392 24.29-44.682 47.782-68.073 29.888-29.888 63.775-63.775 63.775-107.558-0.1-80.069-64.975-145.243-144.644-145.243z m-49.58 514.899c0 27.389 22.19 49.58 49.58 49.58 27.39 0 49.58-22.191 49.58-49.58s-22.19-49.581-49.58-49.581c-27.39 0-49.58 22.191-49.58 49.58z m0 0"
          fill="#b2b2b2" p-id="2818"></path>
</svg>
